<?xml version="1.0" encoding="UTF-8"?>
<svg id="Layer_1" data-name="Layer 1" xmlns="http://www.w3.org/2000/svg" viewBox="0 0 603 299.8">
  <defs>
    <style>
      .cls-1, .cls-2 {
        fill: none;
      }

      .cls-3, .cls-4 {
        fill: #231f20;
      }

      .cls-4, .cls-2 {
        stroke: #231f20;
        stroke-miterlimit: 10;
        stroke-width: 2px;
      }
    </style>
  </defs>
  <circle class="cls-2" cx="72" cy="121.97" r="41.03"/>
  <polyline class="cls-2" points="315 154 315 136 315 82 315 100 360 82 360 1 72 1 72 82"/>
  <g>
    <polyline class="cls-2" points="72 111.4 72 163 72 226 360 226 360 154 315 136"/>
    <path class="cls-3" d="M62.4,125.07c.46.3,1.08.16,1.38-.31l8.22-12.91,8.22,12.91c.3.47.92.6,1.38.31.46-.3.6-.92.31-1.38l-9.06-14.23c-.18-.29-.5-.46-.84-.46s-.66.17-.84.46l-9.06,14.23c-.11.17-.16.35-.16.54,0,.33.16.65.46.84Z"/>
  </g>
  <path class="cls-2" d="M315,118h-45v-63h90"/>
  <path class="cls-3" d="M359.77,57.14c3.22,0,3.22-5,0-5s-3.22,5,0,5h0Z"/>
  <polyline class="cls-4" points="360 226 360 271 342 271 360 298 378 271 369 271 360 271"/>
  <rect class="cls-1" x="333" y="109" width="9" height="0"/>
  <g>
    <rect class="cls-1" x="342" y="109" width="77.38" height="19.6"/>
    <path d="M342.54,117.52v-.65l.83-.8c1.99-1.9,2.89-2.9,2.9-4.08,0-.79-.38-1.52-1.55-1.52-.71,0-1.3.36-1.66.66l-.34-.74c.54-.46,1.31-.79,2.21-.79,1.68,0,2.39,1.15,2.39,2.27,0,1.44-1.04,2.6-2.69,4.19l-.62.58v.02h3.5v.88h-4.98Z"/>
    <path d="M349.07,117.52v-8.08h1.14l2.59,4.09c.6.95,1.07,1.8,1.45,2.63h.02c-.1-1.09-.12-2.07-.12-3.33v-3.38h.98v8.08h-1.06l-2.57-4.1c-.56-.9-1.1-1.82-1.51-2.7h-.04c.06,1.03.08,2,.08,3.35v3.45h-.98Z"/>
    <path d="M356.84,116.31c.3.19,1,.49,1.73.49,1.36,0,1.78-.86,1.76-1.51-.01-1.09-1-1.56-2.01-1.56h-.59v-.79h.59c.77,0,1.74-.4,1.74-1.32,0-.62-.4-1.18-1.37-1.18-.62,0-1.22.28-1.56.52l-.28-.77c.41-.3,1.2-.6,2.04-.6,1.54,0,2.23.91,2.23,1.86,0,.8-.48,1.49-1.44,1.83v.02c.96.19,1.74.91,1.74,2,0,1.25-.97,2.34-2.84,2.34-.88,0-1.64-.28-2.03-.53l.29-.82Z"/>
    <path d="M363.36,116.78c.23.02.49,0,.85-.04.61-.08,1.19-.34,1.63-.76.52-.47.89-1.15,1.03-2.07h-.04c-.43.53-1.06.84-1.83.84-1.4,0-2.3-1.06-2.3-2.39,0-1.48,1.07-2.77,2.66-2.77s2.58,1.3,2.58,3.29c0,1.72-.58,2.91-1.34,3.66-.6.59-1.43.95-2.27,1.04-.38.06-.72.07-.97.06v-.86ZM363.74,112.29c0,.97.59,1.65,1.5,1.65.71,0,1.26-.35,1.54-.82.06-.1.1-.22.1-.38,0-1.33-.49-2.35-1.59-2.35-.9,0-1.54.79-1.54,1.9Z"/>
    <path d="M374.08,113.54c0,2.65-.98,4.11-2.71,4.11-1.52,0-2.55-1.43-2.58-4.01,0-2.61,1.13-4.05,2.71-4.05s2.58,1.46,2.58,3.95ZM369.85,113.66c0,2.03.62,3.18,1.58,3.18,1.08,0,1.59-1.26,1.59-3.25s-.49-3.18-1.58-3.18c-.92,0-1.59,1.13-1.59,3.25Z"/>
    <path d="M378.32,117.52v-2.12h-3.62v-.7l3.48-4.98h1.14v4.85h1.09v.83h-1.09v2.12h-1ZM378.32,114.57v-2.6c0-.41.01-.82.04-1.22h-.04c-.24.46-.43.79-.65,1.15l-1.91,2.65v.02h2.55Z"/>
  </g>
  <polyline class="cls-2" points="355.15 145 360 154 351 158.13"/>
  <g>
    <path d="M13.77,112.88v10.6h1.64v.66h-4.88v-.66h1.64v-10.6h-1.64v-.66h4.88v.66h-1.64Z"/>
    <path d="M17.78,123.75h.72v.38h-2.29v-.38h.72v-3.31h-.72v-.38h1.58v3.69ZM17.35,118.71c-.08,0-.16-.01-.23-.04-.07-.03-.13-.07-.18-.12-.05-.05-.09-.11-.12-.18-.03-.07-.04-.15-.04-.23s.02-.16.05-.23c.03-.07.07-.13.12-.18s.11-.09.18-.12c.07-.03.15-.04.22-.04s.15.01.22.04c.07.03.13.07.18.12.05.05.09.11.12.18.03.07.04.15.04.23s-.02.16-.05.23c-.03.07-.07.13-.12.18-.05.05-.11.09-.18.12-.07.03-.15.04-.22.04Z"/>
    <path d="M20.58,123.75h.65v.38h-2.22v-.38h.72v-3.31h-.72v-.38h1.58v.69h.02c.13-.26.31-.47.53-.61.22-.14.5-.21.85-.21.44,0,.76.11.98.34s.32.55.32.96v2.52h.69v.38h-2.2v-.38h.65v-2.65c0-.25-.06-.44-.18-.56-.12-.12-.28-.18-.5-.18-.16,0-.31.03-.45.1-.14.07-.26.17-.37.32-.1.14-.19.33-.25.55s-.09.49-.09.79v1.63Z"/>
  </g>
</svg>