<?xml version="1.0" encoding="UTF-8"?>
<svg id="Layer_1" data-name="Layer 1" xmlns="http://www.w3.org/2000/svg" viewBox="0 0 675 337.94">
  <defs>
    <style>
      .cls-1, .cls-2 {
        fill: none;
      }

      .cls-3, .cls-4 {
        fill: #231f20;
      }

      .cls-4, .cls-2 {
        stroke: #231f20;
        stroke-miterlimit: 10;
        stroke-width: 2px;
      }
    </style>
  </defs>
  <circle class="cls-2" cx="144" cy="160.11" r="41.03"/>
  <line class="cls-2" x1="144" y1="39.13" x2="144" y2="120.13"/>
  <path class="cls-2" d="M387,156.13h-45v-63h90"/>
  <path class="cls-3" d="M431.77,95.27c3.22,0,3.22-5,0-5s-3.22,5,0,5h0Z"/>
  <polyline class="cls-4" points="432 264.13 432 309.13 414 309.13 432 336.13 450 309.13 441 309.13 432 309.13"/>
  <rect class="cls-1" x="405" y="147.13" width="9" height="0"/>
  <g>
    <rect class="cls-1" x="414" y="147.13" width="77.38" height="19.6"/>
    <path d="M414.54,155.65v-.65l.83-.8c1.99-1.9,2.89-2.9,2.9-4.08,0-.79-.38-1.52-1.55-1.52-.71,0-1.3.36-1.66.66l-.34-.74c.54-.46,1.31-.79,2.21-.79,1.68,0,2.39,1.15,2.39,2.27,0,1.44-1.04,2.6-2.69,4.19l-.62.58v.02h3.5v.88h-4.98Z"/>
    <path d="M421.07,155.65v-8.08h1.14l2.59,4.09c.6.95,1.07,1.8,1.45,2.63h.02c-.1-1.09-.12-2.07-.12-3.33v-3.38h.98v8.08h-1.06l-2.57-4.1c-.56-.9-1.1-1.82-1.51-2.7h-.04c.06,1.03.08,2,.08,3.35v3.45h-.98Z"/>
    <path d="M428.84,154.44c.3.19,1,.49,1.73.49,1.36,0,1.78-.86,1.76-1.51-.01-1.09-1-1.56-2.01-1.56h-.59v-.79h.59c.77,0,1.74-.4,1.74-1.32,0-.62-.4-1.18-1.37-1.18-.62,0-1.22.28-1.56.52l-.28-.77c.41-.3,1.2-.6,2.04-.6,1.54,0,2.23.91,2.23,1.86,0,.8-.48,1.49-1.44,1.83v.02c.96.19,1.74.91,1.74,2,0,1.25-.97,2.34-2.84,2.34-.88,0-1.64-.28-2.03-.53l.29-.82Z"/>
    <path d="M435.36,154.91c.23.02.49,0,.85-.04.61-.08,1.19-.34,1.63-.76.52-.47.89-1.15,1.03-2.07h-.04c-.43.53-1.06.84-1.83.84-1.4,0-2.3-1.06-2.3-2.39,0-1.48,1.07-2.77,2.66-2.77s2.58,1.3,2.58,3.29c0,1.72-.58,2.91-1.34,3.66-.6.59-1.43.95-2.27,1.04-.38.06-.72.07-.97.06v-.86ZM435.74,150.43c0,.97.59,1.65,1.5,1.65.71,0,1.26-.35,1.54-.82.06-.1.1-.22.1-.38,0-1.33-.49-2.35-1.59-2.35-.9,0-1.54.79-1.54,1.9Z"/>
    <path d="M446.08,151.67c0,2.65-.98,4.11-2.71,4.11-1.52,0-2.55-1.43-2.58-4.01,0-2.61,1.13-4.05,2.71-4.05s2.58,1.46,2.58,3.95ZM441.85,151.79c0,2.03.62,3.18,1.58,3.18,1.08,0,1.59-1.26,1.59-3.25s-.49-3.18-1.58-3.18c-.92,0-1.59,1.13-1.59,3.25Z"/>
    <path d="M450.32,155.65v-2.12h-3.62v-.7l3.48-4.98h1.14v4.85h1.09v.83h-1.09v2.12h-1ZM450.32,152.7v-2.6c0-.41.01-.82.04-1.22h-.04c-.24.46-.43.79-.65,1.15l-1.91,2.65v.02h2.55Z"/>
  </g>
  <polyline class="cls-2" points="427.15 183.13 432 192.13 423 196.26"/>
  <g>
    <path d="M78.25,162.67h.03l3.29-8.78h-1.64v-.66h3.91v.66h-1.48l-4.26,11.37h-.65l-4-11.37h-1.62v-.66h5.04v.66h-1.7l3.08,8.78Z"/>
    <path d="M85.44,164.75h.72v.38h-2.29v-.38h.72v-3.31h-.72v-.38h1.58v3.69ZM85.01,159.71c-.08,0-.16-.01-.23-.04-.07-.03-.13-.07-.18-.12-.05-.05-.09-.11-.12-.18-.03-.07-.04-.15-.04-.23s.02-.16.05-.23c.03-.07.07-.13.12-.18s.11-.09.18-.12c.07-.03.15-.04.22-.04s.15.01.22.04c.07.03.13.07.18.12.05.05.09.11.12.18.03.07.04.15.04.23s-.02.16-.05.23c-.03.07-.07.13-.12.18-.05.05-.11.09-.18.12-.07.03-.15.04-.22.04Z"/>
    <path d="M88.23,164.75h.65v.38h-2.22v-.38h.72v-3.31h-.72v-.38h1.58v.69h.02c.13-.26.31-.47.53-.61.22-.14.5-.21.85-.21.44,0,.76.11.98.34s.32.55.32.96v2.52h.69v.38h-2.2v-.38h.65v-2.65c0-.25-.06-.44-.18-.56-.12-.12-.28-.18-.5-.18-.16,0-.31.03-.45.1-.14.07-.26.17-.37.32-.1.14-.19.33-.25.55s-.09.49-.09.79v1.63Z"/>
  </g>
  <polyline class="cls-2" points="144 201.13 144 264.13 432 264.13 432 192.13 387 174.13"/>
  <line class="cls-2" x1="135" y1="183.13" x2="153" y2="183.13"/>
  <line class="cls-2" x1="144" y1="129.13" x2="144" y2="147.13"/>
  <line class="cls-2" x1="153" y1="138.13" x2="135" y2="138.13"/>
  <rect class="cls-1" y="143.84" width="2.83" height="3.3"/>
  <polyline class="cls-2" points="144 39.13 207 39.13 216 28.13 234 55.13 252 28.13 270 55.13 288 28.13 306 55.13 315 39.13 432 39.13 432 120.13 387 138.13 387 120.13 387 174.13 387 192.13"/>
  <path d="M258.92,3.34c1.19,0,2.19.09,3.01.27s1.48.43,1.98.76.86.73,1.08,1.2c.22.47.33.99.33,1.56,0,.49-.08.96-.23,1.4-.15.44-.38.84-.69,1.2s-.69.67-1.15.93c-.46.26-1,.45-1.62.59v.04c.52.12.94.3,1.27.53.33.23.6.52.81.85.21.34.37.72.48,1.15.12.43.22.9.31,1.42.09.53.17,1.02.24,1.45.07.44.17.82.29,1.13.12.32.28.57.49.74.21.18.49.26.86.26.07,0,.16,0,.29-.01.12,0,.26-.02.41-.04v.86c-.13.03-.27.06-.42.08s-.3.04-.46.05c-.15.01-.3.02-.45.02-.15,0-.27,0-.39,0-.65,0-1.16-.07-1.53-.21-.37-.14-.66-.35-.85-.65-.2-.29-.34-.66-.42-1.1s-.16-.97-.24-1.57c-.11-.88-.22-1.62-.34-2.22s-.27-1.08-.47-1.44c-.2-.36-.48-.62-.82-.78-.34-.15-.81-.23-1.4-.23h-2.11v7.15h2.36v.9h-6.79v-.9h2.25V4.24h-2.25v-.9h6.19ZM257.17,10.71h1.49c.81,0,1.48-.07,2.03-.2.54-.13.98-.35,1.31-.63.33-.29.57-.66.71-1.1.14-.45.21-.98.21-1.61,0-.52-.06-.97-.17-1.34-.11-.37-.32-.67-.62-.9-.3-.23-.72-.4-1.26-.51-.54-.11-1.23-.16-2.08-.16h-1.62v6.47Z"/>
  <circle class="cls-2" cx="525.54" cy="160.11" r="41.03"/>
  <polyline class="cls-2" points="525.54 119.08 525.54 39.13 432 39.13"/>
  <g>
    <polyline class="cls-2" points="432 264.13 525.54 264.13 525.54 201.13 525.54 146.79"/>
    <polygon class="cls-3" points="533.72 153.42 532.26 154.78 525.55 147.56 518.83 154.78 517.37 153.42 525.55 144.62 533.72 153.42"/>
  </g>
</svg>